<svg fill="#d3d3d3" xmlns="http://www.w3.org/2000/svg"  viewBox="0 0 50 50" width="150px" height="150px"><path d="M 12.59375 13.6875 L 12.625 23.65625 C 12.515625 21.804688 11.660156 18.09375 6.46875 18.09375 C 0.214844 18.09375 -0.03125 22.957031 0 24.21875 C 0 24.21875 -0.304688 29.90625 6.3125 29.90625 C 11.996094 29.90625 12.28125 26.34375 12.28125 26.34375 L 9.65625 26.34375 C 9.65625 26.34375 9.140625 28.335938 6.3125 28.28125 C 2.675781 28.214844 2.53125 24.6875 2.53125 24.6875 L 12.625 24.6875 L 12.65625 26.96875 C 12.65625 26.96875 12.625 28.507813 12.53125 29.53125 L 14.96875 29.53125 L 15.09375 28.03125 C 15.09375 28.03125 16.226563 29.90625 19.5625 29.90625 C 22.429688 29.90625 24.785156 28.402344 25.4375 25.5625 C 24.925781 28.902344 27.886719 29.921875 30.21875 29.90625 C 32.550781 29.894531 33.886719 29.21875 34.875 27.96875 L 35 29.5 L 37.3125 29.5 C 37.3125 29.5 37.242188 28.625 37.25 26.90625 C 37.257813 25.1875 37.308594 23.644531 37.25 22.5625 C 37.222656 22.011719 37.21875 21.125 36.78125 20.28125 C 36.21875 19.195313 34.925781 18.1875 31.875 18.0625 C 31.875 18.0625 26.664063 17.597656 26.125 21.46875 L 28.78125 21.46875 C 28.78125 21.46875 28.988281 19.699219 31.6875 19.75 C 34.242188 19.796875 34.734375 21.054688 34.71875 22.59375 C 34.71875 22.59375 32.511719 22.589844 31.78125 22.59375 C 30.488281 22.601563 26.046875 22.753906 25.46875 25.40625 C 25.554688 24.984375 25.585938 24.539063 25.59375 24.0625 C 25.664063 20.25 22.769531 18.109375 19.625 18.09375 C 16.480469 18.074219 15.125 19.96875 15.125 19.96875 L 15.125 13.6875 Z M 36.78125 20.28125 L 41.6875 29.5 L 39.4375 33.71875 L 42.25 33.71875 L 50 18.53125 L 47.34375 18.53125 L 43.0625 27.03125 L 38.78125 18.53125 L 35.875 18.53125 Z M 6.40625 19.75 C 9.988281 19.75 10 22.9375 10 22.9375 L 2.625 22.9375 C 2.625 22.9375 2.808594 19.75 6.40625 19.75 Z M 19.03125 19.8125 C 23.074219 19.707031 22.9375 24.09375 22.9375 24.09375 C 22.9375 24.09375 23 28.167969 19.03125 28.21875 C 15.0625 28.269531 15.125 24 15.125 24 C 15.125 24 14.988281 19.917969 19.03125 19.8125 Z M 31.25 24.28125 C 31.625 24.261719 31.875 24.28125 31.875 24.28125 L 34.71875 24.28125 C 34.71875 24.28125 35.1875 28.371094 30.65625 28.3125 C 30.65625 28.3125 28.148438 28.300781 28 26.28125 C 27.882813 24.664063 30.121094 24.34375 31.25 24.28125 Z"/></svg>