<svg fill="#d3d3d3" xmlns="http://www.w3.org/2000/svg"  viewBox="0 0 50 50" width="150px" height="150px"><path d="M 3 21 C 1.34375 21 0 22.425781 0 24.082031 C 0 25.738281 1.34375 27 3 27 L 6 27 C 7.65625 27 9 25.660156 9 24 C 9 22.34375 7.65625 21 6 21 Z M 10 21 L 10 27 L 11 27 L 11 22 L 14.972656 22 C 15.507813 22 16 22.492188 16 23.03125 C 16 23.566406 15.507813 24 14.972656 24 L 12 24 L 15.605469 27 L 17 27 L 14.519531 25 L 15.046875 25 C 16.167969 25 17 24.148438 17 23.03125 C 17 21.910156 16.167969 21 15.046875 21 Z M 22 21 C 21.730469 21 21.488281 21.136719 21.34375 21.363281 L 18 27 L 19.082031 27 L 22 22 L 23.761719 25 L 21 25 L 22 26 L 24.347656 26 L 24.9375 27 L 26 27 L 22.640625 21.355469 C 22.5 21.132813 22.261719 21 22 21 Z M 29 21 C 27.34375 21 26 22.34375 26 24 C 26 25.65625 27.34375 27 29 27 L 33 27 L 34 26 L 28.980469 26 C 27.886719 26 27 25.105469 27 24 C 27 22.898438 27.886719 22 28.980469 22 L 33 22 L 34 21 Z M 35 21 L 35 26.425781 C 35 26.574219 35.058594 26.714844 35.167969 26.828125 C 35.277344 26.9375 35.429688 27 35.589844 27 L 40 27 L 41 26 L 36 26 L 36 21 Z M 45 21 C 43.34375 21 42 22.34375 42 24 C 42 25.65625 43.34375 27 45 27 L 49 27 L 50 26 L 44.980469 26 C 44.058594 26 43.289063 25.363281 43.070313 24.5 L 49 24.5 L 50 23.5 L 43.070313 23.5 C 43.292969 22.640625 44.058594 22 44.980469 22 L 49 22 L 50 21 Z M 2.980469 22 L 6.019531 22 C 7.113281 22 8 22.898438 8 24 C 8 25.105469 7.113281 26 6.019531 26 L 2.980469 26 C 1.886719 26 1 25.105469 1 24 C 1 22.898438 1.886719 22 2.980469 22 Z"/></svg>